<svg width="31" height="30" viewBox="0 0 31 30" fill="none" xmlns="http://www.w3.org/2000/svg">
<g clip-path="url(#clip0_10_35)">
<path d="M23.0957 0H7.1582C3.27495 0 0.126953 3.148 0.126953 7.03125V22.9688C0.126953 26.852 3.27495 30 7.1582 30H23.0957C26.979 30 30.127 26.852 30.127 22.9688V7.03125C30.127 3.148 26.979 0 23.0957 0Z" fill="url(#paint0_radial_10_35)"/>
<path d="M23.0957 0H7.1582C3.27495 0 0.126953 3.148 0.126953 7.03125V22.9688C0.126953 26.852 3.27495 30 7.1582 30H23.0957C26.979 30 30.127 26.852 30.127 22.9688V7.03125C30.127 3.148 26.979 0 23.0957 0Z" fill="url(#paint1_radial_10_35)"/>
<path d="M15.128 3.28125C11.9454 3.28125 11.5459 3.2952 10.296 3.35203C9.04844 3.40922 8.19684 3.60668 7.45176 3.89648C6.6809 4.19578 6.02711 4.59621 5.37578 5.24777C4.72387 5.89922 4.32344 6.55301 4.0232 7.32352C3.73258 8.06883 3.53488 8.92078 3.47875 10.1678C3.42285 11.4178 3.4082 11.8174 3.4082 15.0001C3.4082 18.1828 3.42227 18.581 3.47898 19.8309C3.53641 21.0785 3.73387 21.9301 4.02344 22.6752C4.32297 23.4461 4.7234 24.0998 5.37496 24.7512C6.02617 25.4031 6.67996 25.8045 7.45023 26.1038C8.1959 26.3936 9.04762 26.591 10.295 26.6482C11.545 26.705 11.9441 26.719 15.1266 26.719C18.3095 26.719 18.7077 26.705 19.9577 26.6482C21.2052 26.591 22.0578 26.3936 22.8034 26.1038C23.5739 25.8045 24.2268 25.4031 24.8779 24.7512C25.5298 24.0998 25.9301 23.4461 26.2305 22.6755C26.5185 21.9301 26.7163 21.0783 26.7749 19.8312C26.8311 18.5812 26.8457 18.1828 26.8457 15.0001C26.8457 11.8174 26.8311 11.418 26.7749 10.168C26.7163 8.92043 26.5185 8.06895 26.2305 7.32387C25.9301 6.55301 25.5298 5.89922 24.8779 5.24777C24.2261 4.59598 23.5742 4.19555 22.8027 3.8966C22.0557 3.60668 21.2036 3.4091 19.956 3.35203C18.706 3.2952 18.308 3.28125 15.1244 3.28125H15.128ZM14.0767 5.39309C14.3888 5.39262 14.737 5.39309 15.128 5.39309C18.257 5.39309 18.6278 5.40434 19.8634 5.46047C21.006 5.51273 21.6262 5.70363 22.0393 5.86406C22.5862 6.07641 22.9761 6.33035 23.386 6.74063C23.7961 7.15078 24.05 7.54137 24.2629 8.08828C24.4233 8.50078 24.6145 9.12094 24.6665 10.2635C24.7226 11.4989 24.7348 11.8699 24.7348 14.9974C24.7348 18.1249 24.7226 18.4961 24.6665 19.7313C24.6142 20.8739 24.4233 21.4941 24.2629 21.9067C24.0505 22.4536 23.7961 22.843 23.386 23.2529C22.9758 23.6631 22.5864 23.9169 22.0393 24.1294C21.6266 24.2905 21.006 24.4809 19.8634 24.5332C18.628 24.5893 18.257 24.6015 15.128 24.6015C11.9989 24.6015 11.628 24.5893 10.3927 24.5332C9.25012 24.4805 8.62996 24.2896 8.21652 24.1291C7.66973 23.9167 7.27902 23.6629 6.86887 23.2527C6.45871 22.8425 6.20488 22.4529 5.99195 21.9057C5.83152 21.4931 5.64039 20.873 5.58836 19.7304C5.53223 18.495 5.52098 18.124 5.52098 14.9945C5.52098 11.8651 5.53223 11.496 5.58836 10.2606C5.64062 9.11801 5.83152 8.49785 5.99195 8.08477C6.20441 7.53785 6.45871 7.14727 6.86898 6.73711C7.27914 6.32695 7.66973 6.07301 8.21664 5.8602C8.62973 5.69906 9.25012 5.50863 10.3927 5.45613C11.4738 5.40727 11.8927 5.39262 14.0767 5.39016V5.39309ZM21.3835 7.33887C20.6071 7.33887 19.9772 7.96816 19.9772 8.74465C19.9772 9.52102 20.6071 10.1509 21.3835 10.1509C22.1598 10.1509 22.7897 9.52102 22.7897 8.74465C22.7897 7.96828 22.1598 7.3384 21.3835 7.3384V7.33887ZM15.128 8.98195C11.8046 8.98195 9.10996 11.6766 9.10996 15.0001C9.10996 18.3237 11.8046 21.017 15.128 21.017C18.4516 21.017 21.1452 18.3237 21.1452 15.0001C21.1452 11.6767 18.4513 8.98195 15.1278 8.98195H15.128ZM15.128 11.0938C17.2853 11.0938 19.0343 12.8426 19.0343 15.0001C19.0343 17.1574 17.2853 18.9064 15.128 18.9064C12.9706 18.9064 11.2218 17.1574 11.2218 15.0001C11.2218 12.8426 12.9706 11.0938 15.128 11.0938Z" fill="white"/>
</g>
<defs>
<radialGradient id="paint0_radial_10_35" cx="0" cy="0" r="1" gradientUnits="userSpaceOnUse" gradientTransform="translate(8.0957 32.3106) rotate(-90) scale(29.7322 27.6533)">
<stop stop-color="#FFDD55"/>
<stop offset="0.1" stop-color="#FFDD55"/>
<stop offset="0.5" stop-color="#FF543E"/>
<stop offset="1" stop-color="#C837AB"/>
</radialGradient>
<radialGradient id="paint1_radial_10_35" cx="0" cy="0" r="1" gradientUnits="userSpaceOnUse" gradientTransform="translate(-4.89816 2.16105) rotate(78.681) scale(13.2905 54.7837)">
<stop stop-color="#3771C8"/>
<stop offset="0.128" stop-color="#3771C8"/>
<stop offset="1" stop-color="#6600FF" stop-opacity="0"/>
</radialGradient>
<clipPath id="clip0_10_35">
<rect width="30" height="30" fill="white" transform="translate(0.126953)"/>
</clipPath>
</defs>
</svg>
