<svg width="31" height="30" viewBox="0 0 31 30" fill="none" xmlns="http://www.w3.org/2000/svg">
<g clip-path="url(#clip0_10_32)">
<path d="M30.127 15C30.127 6.71578 23.4112 0 15.127 0C6.84273 0 0.126953 6.71566 0.126953 15C0.126953 22.4869 5.61227 28.6925 12.7832 29.8178V19.3359H8.97461V15H12.7832V11.6953C12.7832 7.93594 15.0227 5.85938 18.4489 5.85938C20.0901 5.85938 21.8066 6.15234 21.8066 6.15234V9.84375H19.9152C18.0517 9.84375 17.4707 11 17.4707 12.1863V15H21.6309L20.9658 19.3359H17.4707V29.8178C24.6416 28.6925 30.127 22.487 30.127 15Z" fill="#1877F2"/>
<path d="M20.9658 19.3359L21.6309 15H17.4707V12.1863C17.4707 10.9999 18.0518 9.84375 19.9152 9.84375H21.8066V6.15234C21.8066 6.15234 20.0901 5.85938 18.4489 5.85938C15.0227 5.85938 12.7832 7.93594 12.7832 11.6953V15H8.97461V19.3359H12.7832V29.8178C13.5585 29.9393 14.3422 30.0002 15.127 30C15.9118 30.0002 16.6954 29.9393 17.4707 29.8178V19.3359H20.9658Z" fill="white"/>
</g>
<defs>
<clipPath id="clip0_10_32">
<rect width="30" height="30" fill="white" transform="translate(0.126953)"/>
</clipPath>
</defs>
</svg>
