<svg width="37" height="30" viewBox="0 0 37 30" fill="none" xmlns="http://www.w3.org/2000/svg">
<g clip-path="url(#clip0_10_40)">
<path d="M36.8734 3.6531C35.4973 4.26268 34.0378 4.66281 32.5433 4.84018C34.1 3.90717 35.2953 2.4297 35.8581 0.669321C34.3783 1.54748 32.7592 2.1662 31.0709 2.49875C29.6956 1.03363 27.7364 0.117981 25.568 0.117981C21.4044 0.117981 18.0288 3.49348 18.0288 7.65674C18.0288 8.24769 18.0955 8.823 18.224 9.37492C11.9584 9.06042 6.40341 6.05913 2.68499 1.49798C2.03619 2.61143 1.66442 3.90659 1.66442 5.28803C1.66442 7.90363 2.99547 10.211 5.01824 11.5631C3.82104 11.5256 2.65018 11.2022 1.60341 10.62C1.60298 10.6516 1.60298 10.6831 1.60298 10.7149C1.60298 14.3676 4.20164 17.4146 7.65035 18.1072C6.54019 18.4091 5.3757 18.4533 4.24585 18.2364C5.20513 21.2315 7.98939 23.411 11.2882 23.472C8.7081 25.494 5.45734 26.6993 1.92537 26.6993C1.31676 26.6993 0.716762 26.6635 0.126953 26.5939C3.46327 28.733 7.426 29.981 11.6834 29.981C25.5504 29.981 33.1333 18.4933 33.1333 8.53104C33.1333 8.20406 33.1261 7.87894 33.1115 7.55568C34.5874 6.48872 35.8613 5.16719 36.8734 3.6531Z" fill="#55ACEE"/>
</g>
<defs>
<clipPath id="clip0_10_40">
<rect width="36.7464" height="30" fill="white" transform="translate(0.126953)"/>
</clipPath>
</defs>
</svg>
