<svg width="35" height="30" viewBox="0 0 35 30" fill="none" xmlns="http://www.w3.org/2000/svg">
<g clip-path="url(#clip0_29_2)">
<path d="M3.2625 0H31.3013C32.1665 0 32.9963 0.343727 33.6082 0.955564C34.22 1.5674 34.5637 2.39723 34.5637 3.2625C34.5637 4.12777 34.22 4.9576 33.6082 5.56944C32.9963 6.18127 32.1665 6.525 31.3013 6.525H3.2625C2.39723 6.525 1.5674 6.18127 0.955564 5.56944C0.343727 4.9576 9.72301e-08 4.12777 9.72301e-08 3.2625C9.72301e-08 2.39723 0.343727 1.5674 0.955564 0.955564C1.5674 0.343727 2.39723 0 3.2625 0ZM3.2625 11.7375H31.3013C31.7297 11.7375 32.1539 11.8219 32.5498 11.9858C32.9456 12.1498 33.3052 12.3901 33.6082 12.6931C33.9111 12.996 34.1515 13.3557 34.3154 13.7515C34.4794 14.1473 34.5638 14.5716 34.5638 15C34.5638 15.4284 34.4794 15.8527 34.3154 16.2485C34.1515 16.6443 33.9111 17.004 33.6082 17.3069C33.3052 17.6099 32.9456 17.8502 32.5498 18.0142C32.1539 18.1781 31.7297 18.2625 31.3013 18.2625H3.2625C2.83406 18.2625 2.40982 18.1781 2.014 18.0142C1.61817 17.8502 1.25852 17.6099 0.955564 17.3069C0.652613 17.004 0.412299 16.6443 0.248343 16.2485C0.0843871 15.8527 2.8478e-08 15.4284 2.8478e-08 15C2.8478e-08 14.5716 0.0843871 14.1473 0.248343 13.7515C0.412299 13.3557 0.652613 12.996 0.955564 12.6931C1.25852 12.3901 1.61817 12.1498 2.014 11.9858C2.40982 11.8219 2.83406 11.7375 3.2625 11.7375ZM3.2625 23.4763H31.3013C31.7297 23.4763 32.1539 23.5606 32.5498 23.7246C32.9456 23.8886 33.3052 24.1289 33.6082 24.4318C33.9111 24.7348 34.1515 25.0944 34.3154 25.4902C34.4794 25.8861 34.5638 26.3103 34.5638 26.7388C34.5638 27.1672 34.4794 27.5914 34.3154 27.9873C34.1515 28.3831 33.9111 28.7427 33.6082 29.0457C33.3052 29.3486 32.9456 29.589 32.5498 29.7529C32.1539 29.9169 31.7297 30.0012 31.3013 30.0012H3.2625C2.83406 30.0012 2.40982 29.9169 2.014 29.7529C1.61817 29.589 1.25852 29.3486 0.955564 29.0457C0.652613 28.7427 0.412299 28.3831 0.248343 27.9873C0.084387 27.5914 0 27.1672 0 26.7388C0 26.3103 0.084387 25.8861 0.248343 25.4902C0.412299 25.0944 0.652613 24.7348 0.955564 24.4318C1.25852 24.1289 1.61817 23.8886 2.014 23.7246C2.40982 23.5606 2.83406 23.4763 3.2625 23.4763Z" fill="black"/>
</g>
<defs>
<clipPath id="clip0_29_2">
<rect width="35" height="30" fill="white"/>
</clipPath>
</defs>
</svg>
